# xmcd
# Track frame offsets:
# 150
# 18740
# 35915
# 59939
# 76380
# 91402
# 106151
# 123812
# 139763
#
# Disc length: 2086 seconds
# Revision: 0
# Processed by: cddbd v1.5.1PL0 Copyright (c) Steve Scherf et al.
# Submitted via: VisiTrax 2.9.10.228 - For more info visit www.synapsa.com
#
DISCID=7c082409
DTITLE=Various Artist - Hits Monthly Nashville  PHN0112
DYEAR=1900
DGENRE=Karaoke
TTITLE0=Messina, Jo Dee and Garth - Bring On The Rain
TTITLE1=Byrd, Tracy - Just Let Me Be In Love
TTITLE2=Montgomery Gentry - Cold One Comin' On
TTITLE3=Holy, Steve - Good Morning Beautiful
TTITLE4=Lawrence, Tracy - Life Don't Have To Be So Hard
TTITLE5=Paisley, Brad - Wrapped Around
TTITLE6=Diffie, Joe - In Another World
TTITLE7=Walker, Clay - If You Ever Feel Like Lovin' Me Again
TTITLE8=Gilman, Billy - Elizabeth
EXTD=
EXTT0=
EXTT1=
EXTT2=
EXTT3=
EXTT4=
EXTT5=
EXTT6=
EXTT7=
EXTT8=
PLAYORDER=
